<svg width="650" height="650" viewBox="0 0 911 949" fill="none" xmlns="http://www.w3.org/2000/svg">
<path d="M850.673 600.148H552.066V420.141H850.673V600.148ZM553.888 598.25H848.851V422.039H553.888V598.25Z" fill="#E0E0E0"/>
<path d="M789.071 516.123H592.059V522.14H789.071V516.123Z" fill="#F0F0F0"/>
<path d="M802.645 538.558H592.059V545.125H802.645V538.558Z" fill="#F0F0F0"/>
<path d="M802.645 561.257H592.059V567.825H802.645V561.257Z" fill="#F0F0F0"/>
<path d="M660.912 483.534H592.059V499.155H660.912V483.534Z" fill="#F0F0F0"/>
<path d="M849.762 421.09H553.031V449.75H849.762V421.09Z" fill="#E0E0E0"/>
<path d="M826.933 445.461C826.55 445.081 830.376 440.279 835.46 434.737C840.543 429.195 845.007 425 845.372 425.361C845.736 425.721 841.928 430.542 836.845 436.103C831.761 441.665 827.297 445.84 826.933 445.461Z" fill="white"/>
<path d="M845.408 445.461C845.044 445.84 840.598 441.665 835.497 436.103C830.395 430.542 826.587 425.74 826.97 425.361C827.352 424.981 831.78 429.157 836.881 434.737C841.983 440.317 845.754 445.081 845.408 445.461Z" fill="white"/>
<path d="M483.231 64.6268L186.5 64.6268V242.754L483.231 242.754V64.6268Z" fill="#E6E6E6"/>
<path d="M422.558 159.679H225.545V165.695H422.558V159.679Z" fill="#F0F0F0"/>
<path d="M436.132 182.113H225.545V188.68H436.132V182.113Z" fill="#F0F0F0"/>
<path d="M436.132 204.813H225.545V211.38H436.132V204.813Z" fill="#F0F0F0"/>
<path d="M294.398 127.09H225.545V142.711H294.398V127.09Z" fill="#F0F0F0"/>
<path d="M483.231 64.6268L186.5 64.6268V93.2866L483.231 93.2866V64.6268Z" fill="#E0E0E0"/>
<path d="M459.399 88.8642C459.016 88.5036 462.843 83.6827 467.926 78.1405C473.009 72.5984 477.473 68.4038 477.838 68.7834C478.202 69.163 474.394 73.9649 469.311 79.5071C464.227 85.0492 459.763 89.2059 459.399 88.8642Z" fill="white"/>
<path d="M477.838 88.8643C477.473 89.2439 473.028 85.0683 467.926 79.5072C462.824 73.946 459.016 69.1631 459.399 68.7835C459.782 68.4039 464.209 72.5795 469.311 78.1406C474.412 83.7018 478.22 88.5037 477.838 88.8643Z" fill="white"/>
<path d="M370.85 395.524H72.2966L72.2966 215.499L370.85 215.499V395.524ZM74.1186 393.626H369.028V217.397L74.1186 217.397L74.1186 393.626Z" fill="#E0E0E0"/>
<path d="M309.266 311.5H112.253V317.516H309.266V311.5Z" fill="#F0F0F0"/>
<path d="M322.84 333.934H112.253V340.501H322.84V333.934Z" fill="#F0F0F0"/>
<path d="M322.84 356.634H112.253V363.201H322.84V356.634Z" fill="#F0F0F0"/>
<path d="M181.107 278.911H112.253V294.532H181.107V278.911Z" fill="#F0F0F0"/>
<path d="M369.939 216.448L73.2079 216.448V245.108L369.939 245.108V216.448Z" fill="#E0E0E0"/>
<path d="M715.408 436.768H365.038V763.528H715.408V436.768Z" fill="#E6E6E6"/>
<path d="M382.656 333.839H108.19L108.19 630.895H382.656V333.839Z" fill="#F0F0F0"/>
<path d="M382.656 333.839H108.19V366.2H382.656V333.839Z" fill="#E0E0E0"/>
<path d="M130.856 349.687C130.806 350.861 130.427 351.993 129.764 352.944C129.102 353.895 128.186 354.622 127.131 355.036C126.076 355.449 124.927 355.531 123.827 355.27C122.728 355.009 121.726 354.418 120.946 353.57C120.166 352.721 119.642 351.653 119.44 350.498C119.238 349.342 119.366 348.15 119.808 347.069C120.25 345.989 120.988 345.067 121.928 344.419C122.869 343.771 123.971 343.425 125.099 343.424C126.658 343.464 128.139 344.145 129.218 345.319C130.296 346.492 130.886 348.063 130.856 349.687V349.687Z" fill="white"/>
<path d="M154.233 349.687C154.186 350.867 153.808 352.005 153.145 352.962C152.482 353.919 151.563 354.652 150.504 355.069C149.444 355.486 148.29 355.569 147.185 355.309C146.08 355.048 145.074 354.454 144.29 353.602C143.507 352.75 142.981 351.676 142.779 350.515C142.577 349.354 142.706 348.157 143.153 347.072C143.599 345.987 144.341 345.063 145.287 344.414C146.234 343.766 147.342 343.421 148.475 343.424C150.034 343.464 151.515 344.145 152.594 345.319C153.673 346.492 154.262 348.063 154.233 349.687V349.687Z" fill="white"/>
<path d="M177.608 349.687C177.562 350.867 177.183 352.005 176.52 352.962C175.857 353.919 174.939 354.652 173.879 355.069C172.819 355.486 171.665 355.569 170.561 355.309C169.456 355.048 168.449 354.454 167.666 353.602C166.882 352.75 166.356 351.676 166.154 350.515C165.952 349.354 166.082 348.157 166.528 347.072C166.974 345.987 167.716 345.063 168.663 344.414C169.609 343.766 170.718 343.421 171.851 343.424C173.41 343.464 174.891 344.145 175.97 345.319C177.048 346.492 177.637 348.063 177.608 349.687V349.687Z" fill="white"/>
<path d="M811.482 129.595L461.112 129.595V493.366H811.482V129.595Z" fill="#F0F0F0"/>
<path d="M811.482 129.595L461.112 129.595V172.206L811.482 172.206V129.595Z" fill="#E0E0E0"/>
<path d="M490.956 150.473C490.891 152.023 490.392 153.518 489.519 154.774C488.646 156.03 487.438 156.991 486.045 157.538C484.653 158.085 483.136 158.193 481.685 157.851C480.233 157.508 478.91 156.728 477.88 155.609C476.85 154.49 476.159 153.08 475.891 151.555C475.623 150.029 475.792 148.456 476.375 147.029C476.959 145.603 477.932 144.386 479.173 143.531C480.414 142.675 481.869 142.219 483.358 142.217C485.415 142.267 487.369 143.164 488.793 144.711C490.217 146.258 490.995 148.33 490.956 150.473V150.473Z" fill="white"/>
<path d="M519.507 144.893C520.517 146.036 521.182 147.463 521.419 148.997C521.656 150.53 521.454 152.102 520.839 153.518C520.225 154.933 519.224 156.128 517.961 156.955C516.699 157.782 515.231 158.203 513.74 158.167C512.249 158.131 510.802 157.638 509.578 156.751C508.354 155.864 507.408 154.621 506.857 153.178C506.306 151.734 506.175 150.154 506.481 148.633C506.786 147.113 507.514 145.72 508.575 144.628C510.059 143.156 512.044 142.357 514.093 142.407C516.142 142.457 518.089 143.351 519.507 144.893V144.893Z" fill="white"/>
<path d="M552.503 150.473C552.439 152.023 551.939 153.518 551.066 154.774C550.193 156.03 548.986 156.991 547.593 157.538C546.2 158.085 544.684 158.193 543.232 157.851C541.781 157.508 540.458 156.728 539.428 155.609C538.398 154.49 537.706 153.08 537.438 151.555C537.171 150.029 537.339 148.456 537.923 147.029C538.506 145.603 539.479 144.386 540.72 143.531C541.962 142.675 543.417 142.219 544.905 142.217C546.963 142.267 548.917 143.164 550.341 144.711C551.765 146.258 552.542 148.33 552.503 150.473V150.473Z" fill="white"/>
<path d="M735.797 860.041C735.797 860.306 609.277 860.534 453.259 860.534C297.241 860.534 170.667 860.306 170.667 860.041C170.667 859.775 297.169 859.547 453.259 859.547C609.35 859.547 735.797 859.794 735.797 860.041Z" fill="#263238"/>
<path d="M612.52 627.688C584.371 607.208 577.994 569.191 579.105 535.008C579.287 529.314 578.686 523.279 581.291 518.287C583.897 513.295 589.982 509.86 594.883 512.251C598.947 514.244 600.714 519.179 602.991 523.26C606.03 528.695 610.483 533.123 615.836 536.033C619.316 537.931 623.635 539.07 627.078 537.096C631.815 534.382 632.362 527.606 632.326 521.912C632.326 511.321 632.265 500.743 632.143 490.177C631.816 484.504 632.37 478.813 633.783 473.323C635.478 467.933 639.249 462.941 644.405 461.423C649.562 459.904 655.993 463.036 657.159 468.578C657.36 470.926 657.415 473.284 657.323 475.639C657.469 478.011 658.526 480.612 660.658 481.333C662.789 482.054 665.012 480.403 666.652 478.733C672.264 473.039 676.09 465.617 679.643 458.291C683.196 450.965 686.676 443.43 691.777 437.185C696.879 430.941 703.93 425.987 711.819 425.513C719.709 425.038 727.926 430.087 729.894 438.058C731.861 446.03 727.398 454.172 722.606 460.645C715.375 470.252 706.851 478.722 697.298 485.793C695.433 486.854 693.945 488.51 693.053 490.519C691.869 494.315 695.312 498.111 698.901 499.307C702.965 500.711 707.374 500.275 711.655 500.806C715.937 501.338 720.492 503.274 722.114 507.449C724.337 513.257 719.672 519.331 715.099 523.317C705.916 531.288 695.489 537.56 684.271 541.86C680.262 543.378 676.054 544.726 672.81 547.649C669.567 550.572 667.636 555.677 669.585 559.682C671.535 563.687 676.546 564.959 680.754 564.143C684.963 563.326 688.698 560.973 692.707 559.398C700.195 556.456 709.852 556.987 714.571 563.725C716.033 566.046 716.958 568.689 717.274 571.445C717.59 574.201 717.289 576.997 716.393 579.611C714.569 584.814 711.763 589.584 708.139 593.637C696.206 608.49 680.701 619.775 663.208 626.34C645.845 632.603 629.757 634.312 612.502 627.726" fill="#407BFF"/>
<path d="M721.877 430.201C721.877 430.201 721.713 430.39 721.348 430.732L719.727 432.232C718.306 433.56 716.21 435.496 713.568 438.058C706.078 445.303 699.123 453.126 692.761 461.461C688.698 466.718 684.489 472.678 680.007 479.15C675.525 485.622 670.897 492.607 666.306 500.028C661.411 507.854 656.928 515.951 652.878 524.285C650.764 528.631 648.906 533.167 646.993 537.798L641.344 551.938C633.899 569.749 627.415 587.98 621.922 606.544C617.497 621.733 614.447 637.32 612.812 653.102C611.752 663.752 611.582 674.478 612.302 685.159C612.593 688.955 612.867 691.859 613.122 693.833C613.231 694.782 613.304 695.541 613.377 696.092V696.87C613.298 696.623 613.243 696.369 613.213 696.111C613.122 695.56 613.012 694.82 612.867 693.871C612.539 691.973 612.192 688.974 611.864 685.178C610.985 674.477 611.046 663.715 612.047 653.026C613.58 637.177 616.564 621.517 620.956 606.259C626.403 587.643 632.87 569.367 640.324 551.521L646.118 537.438C648.031 532.826 649.908 528.251 652.04 523.886C656.118 515.528 660.637 507.411 665.577 499.573C670.241 491.981 674.942 485.11 679.37 478.695C683.797 472.279 688.079 466.282 692.124 461.043C698.549 452.731 705.598 444.963 713.204 437.812C715.901 435.287 718.051 433.389 719.508 432.118L721.203 430.694C721.41 430.506 721.636 430.34 721.877 430.201V430.201Z" fill="#263238"/>
<path d="M652.277 523.848C652.02 523.066 651.843 522.258 651.749 521.438C651.457 519.862 651.129 517.641 650.746 514.757C649.963 509.063 649.161 501.262 648.305 492.626C647.449 483.99 646.483 476.17 645.681 470.533C645.262 467.724 644.898 465.465 644.643 463.89C644.444 463.084 644.34 462.255 644.333 461.423C644.647 462.183 644.873 462.979 645.007 463.795C645.408 465.352 645.864 467.591 646.374 470.419C647.412 476.113 648.433 483.857 649.289 492.512C650.145 501.167 650.874 508.759 651.439 514.662C651.712 517.319 651.949 519.577 652.131 521.381C652.273 522.194 652.322 523.022 652.277 523.848V523.848Z" fill="#263238"/>
<path d="M722.387 510.22C721.501 510.421 720.598 510.536 719.691 510.562C717.869 510.733 715.281 510.961 712.075 511.34C705.661 512.061 696.843 513.39 687.168 515.288C677.493 517.186 668.802 519.331 662.553 520.982C659.437 521.817 656.923 522.576 655.265 523.089C654.379 523.416 653.463 523.645 652.532 523.772C653.374 523.331 654.252 522.969 655.155 522.69C656.868 522.064 659.346 521.191 662.443 520.261C668.656 518.363 677.347 516.104 687.059 514.168C695.285 512.53 703.586 511.326 711.929 510.562C715.154 510.277 717.759 510.163 719.581 510.125C720.517 510.059 721.457 510.091 722.387 510.22Z" fill="#263238"/>
<path d="M621.849 604.931C621.655 604.656 621.496 604.356 621.376 604.039L620.173 601.4C619.135 599.104 617.732 595.706 616.055 591.55C612.667 583.199 608.348 571.507 603.757 558.524C599.166 545.542 594.938 533.85 591.732 525.404C590.165 521.305 588.871 517.945 587.906 515.44L586.885 512.726C586.744 512.413 586.646 512.08 586.594 511.739C586.788 512.014 586.947 512.313 587.067 512.631L588.27 515.269C589.29 517.566 590.711 520.963 592.388 525.12C595.777 533.471 600.095 545.163 604.686 558.145C609.278 571.127 613.505 582.819 616.711 591.265C618.278 595.365 619.572 598.724 620.519 601.229C620.938 602.311 621.285 603.128 621.558 603.944C621.699 604.257 621.797 604.589 621.849 604.931V604.931Z" fill="#263238"/>
<path d="M714.917 573.671C714.625 573.845 714.313 573.979 713.988 574.069L711.291 575.018L701.325 578.378C692.907 581.225 681.283 585.286 668.529 589.766C655.775 594.245 644.096 598.231 635.624 600.888C631.397 602.235 627.953 603.26 625.566 603.944L622.815 604.684C622.495 604.79 622.165 604.86 621.831 604.893C622.123 604.718 622.435 604.584 622.76 604.494L625.457 603.545L635.423 600.186C643.841 597.339 655.465 593.277 668.219 588.798C680.973 584.318 692.634 580.332 701.106 577.675C705.351 576.328 708.777 575.303 711.182 574.62L713.933 573.879C714.253 573.773 714.583 573.703 714.917 573.671V573.671Z" fill="#263238"/>
<path d="M676.946 113.273L667.562 116.765L663.536 103.991C656.138 80.4373 632.562 67.9295 610.898 75.8821C589.234 83.8347 577.701 109.667 585.099 133.221L589.125 145.994L579.705 149.506C576.114 150.957 573.197 153.794 571.561 157.428C569.926 161.062 569.697 165.212 570.923 169.017L597.033 252.13C597.575 254.014 598.474 255.765 599.679 257.279C600.883 258.793 602.367 260.039 604.043 260.944C605.719 261.848 607.552 262.393 609.434 262.545C611.316 262.697 613.208 262.454 614.998 261.829L712.238 225.596C715.877 224.148 718.835 221.285 720.49 217.611C722.145 213.936 722.367 209.737 721.111 205.895L694.983 122.782C694.427 120.904 693.514 119.161 692.297 117.659C691.081 116.157 689.586 114.925 687.903 114.038C686.219 113.15 684.381 112.625 682.499 112.494C680.616 112.362 678.728 112.627 676.946 113.273V113.273ZM602.827 126.559C600.832 120.434 601.19 113.743 603.826 107.888C606.461 102.032 611.17 97.4664 616.965 95.1468C619.827 94.1269 622.857 93.7179 625.873 93.9442C628.89 94.1705 631.832 95.0276 634.524 96.4641C637.215 97.9007 639.602 99.8874 641.541 102.306C643.479 104.724 644.93 107.524 645.808 110.54L649.816 123.313L606.835 139.332L602.827 126.559ZM657.487 200.315L664.155 221.535C664.278 221.96 664.238 222.418 664.045 222.814C663.851 223.21 663.519 223.513 663.117 223.66L653.77 227.134C653.398 227.241 653 227.194 652.661 227.003C652.321 226.812 652.066 226.492 651.948 226.109L645.225 204.984C641.517 204.774 637.96 203.389 635.03 201.014C632.099 198.64 629.935 195.389 628.827 191.698C627.242 186.818 627.531 181.489 629.633 176.826C631.735 172.163 635.488 168.528 640.105 166.682C642.384 165.871 644.797 165.546 647.2 165.727C649.603 165.908 651.946 166.59 654.09 167.735C656.234 168.879 658.135 170.461 659.679 172.387C661.224 174.312 662.38 176.542 663.08 178.943C664.252 182.693 664.349 186.717 663.359 190.524C662.369 194.33 660.334 197.752 657.505 200.372L657.487 200.315Z" fill="#407BFF"/>
<path d="M667.143 116.537C667.143 116.803 649.743 123.617 628.098 131.721C606.453 139.826 588.797 146.336 588.706 146.146C588.615 145.956 606.106 139.086 627.77 130.962C649.434 122.839 667.052 116.291 667.143 116.537Z" fill="#263238"/>
<path d="M687.805 120.03C687.885 120.194 687.952 120.366 688.005 120.542C688.151 120.922 688.315 121.415 688.534 122.022C689.007 123.408 689.663 125.325 690.483 127.716L697.48 148.936C700.395 157.933 703.875 168.599 707.738 180.443C709.56 186.384 711.71 192.571 713.714 199.081C714.786 202.436 715.25 205.97 715.08 209.501C714.926 211.338 714.424 213.125 713.604 214.759C712.729 216.387 711.559 217.824 710.161 218.991C707.346 221.132 704.221 222.791 700.905 223.907L691.522 227.418L673.757 234.042L643.676 245.203L623.361 252.643L617.895 254.541L616.437 255.034C616.281 255.106 616.115 255.151 615.945 255.167C615.945 255.167 616.091 255.167 616.401 254.939L617.822 254.351L623.288 252.206L643.494 244.462L673.52 233.074L691.248 226.393L700.632 222.863C703.854 221.793 706.888 220.184 709.614 218.099C710.916 217.017 712.004 215.683 712.821 214.17C713.593 212.659 714.058 210.999 714.187 209.292C714.355 205.89 713.91 202.484 712.876 199.252C710.908 192.799 708.831 186.554 706.954 180.614C703.164 168.751 699.666 158.046 696.897 149.05C694.127 140.053 691.795 132.822 690.192 127.735C689.426 125.249 688.843 123.313 688.37 121.909L687.932 120.39C687.877 120.275 687.835 120.154 687.805 120.03V120.03Z" fill="#263238"/>
<path d="M636.497 93.8561C636.497 93.8561 635.531 93.3627 633.746 92.6035C631.201 91.5848 628.509 91.0201 625.784 90.9332C621.744 90.7889 617.724 91.5798 614.013 93.2488C609.501 95.327 605.643 98.6886 602.881 102.948C600.101 107.194 598.609 112.213 598.599 117.353C598.637 121.566 599.251 125.752 600.421 129.785C601.369 133.24 602.353 135.992 603.009 137.909C603.395 138.882 603.712 139.885 603.956 140.908C603.438 139.997 603.005 139.038 602.662 138.042C601.915 136.144 600.84 133.448 599.784 129.975C598.486 125.9 597.78 121.646 597.688 117.353C597.64 112.019 599.166 106.798 602.061 102.397C604.919 97.9826 608.935 94.5171 613.631 92.4137C617.457 90.7355 621.603 89.9953 625.747 90.2499C628.532 90.3978 631.267 91.0731 633.819 92.2428C634.501 92.5707 635.159 92.9514 635.786 93.3816C636.046 93.5003 636.285 93.6604 636.497 93.8561V93.8561Z" fill="#263238"/>
<path d="M637.336 168.125C637.627 167.941 637.931 167.783 638.247 167.65C639.159 167.222 640.103 166.872 641.071 166.606C642.606 166.134 644.191 165.854 645.79 165.771C647.965 165.65 650.141 165.992 652.185 166.777C656.849 168.485 661.131 173.439 663.245 180.063C664.258 183.618 664.258 187.403 663.245 190.958C662.121 194.816 660.106 198.328 657.378 201.188L657.487 200.676C659.91 207.603 662.552 215.119 665.285 222.958L665.449 223.433L664.994 223.603L660.821 225.046L651.711 228.216L651.256 228.367L651.11 227.893C648.614 220.035 645.881 212.709 643.822 205.515L644.223 205.838C640.661 205.53 637.265 204.137 634.457 201.833C631.917 199.795 629.834 197.204 628.353 194.241C627.017 191.614 626.352 188.673 626.422 185.7C626.506 182.662 627.234 179.682 628.554 176.971C629.874 174.261 631.753 171.888 634.056 170.023C635.004 169.221 636.068 168.581 637.208 168.125C636.179 168.761 635.182 169.451 634.22 170.194C631.69 172.424 629.751 175.292 628.59 178.526C627.593 180.964 627.127 183.602 627.225 186.25C627.322 188.898 627.981 191.491 629.155 193.843C630.611 196.693 632.643 199.18 635.113 201.131C637.791 203.321 641.029 204.641 644.423 204.927H644.733L644.824 205.212C646.828 212.272 649.58 219.656 652.112 227.551L651.511 227.248L660.621 224.078L664.775 222.616L664.484 223.262C661.769 215.423 659.145 207.888 656.74 200.96V200.676L656.959 200.448C659.607 197.707 661.582 194.341 662.716 190.635C663.683 187.235 663.683 183.616 662.716 180.215C660.73 173.838 656.631 168.998 652.185 167.29C650.217 166.499 648.116 166.131 646.008 166.208C644.435 166.245 642.87 166.468 641.344 166.872C638.629 167.574 637.354 168.22 637.336 168.125Z" fill="#263238"/>
<path d="M581.017 716.153L399.018 715.28C388.507 715.22 378.45 710.817 371.054 703.037C363.658 695.258 359.528 684.739 359.572 673.79L361.503 198.512C361.524 193.087 362.572 187.721 364.585 182.718C366.599 177.716 369.54 173.176 373.238 169.358C376.937 165.54 381.322 162.519 386.143 160.467C390.963 158.416 396.125 157.374 401.332 157.401L583.313 158.274C593.823 158.329 603.883 162.728 611.283 170.504C618.682 178.28 622.816 188.797 622.778 199.746L620.846 675.005C620.825 680.431 619.778 685.8 617.764 690.804C615.751 695.809 612.811 700.351 609.113 704.172C605.414 707.993 601.03 711.018 596.209 713.074C591.388 715.129 586.226 716.176 581.017 716.153V716.153Z" fill="#455A64"/>
<path d="M583.039 174.616H547.765C546.614 174.638 545.479 174.896 544.424 175.376C543.369 175.855 542.415 176.547 541.616 177.41C540.817 178.274 540.19 179.293 539.769 180.409C539.349 181.526 539.144 182.717 539.166 183.916V190.578C539.187 191.776 538.982 192.967 538.561 194.082C538.141 195.197 537.513 196.215 536.714 197.077C535.915 197.939 534.961 198.629 533.906 199.106C532.851 199.584 531.716 199.84 530.566 199.859L461.803 199.537C459.477 199.472 457.271 198.448 455.669 196.69C454.066 194.932 453.199 192.584 453.258 190.161V183.499C453.317 181.078 452.453 178.733 450.854 176.975C449.256 175.218 447.054 174.192 444.731 174.122H432.323L401.441 173.971C394.095 173.925 387.031 176.913 381.796 182.281C376.561 187.649 373.581 194.96 373.509 202.611L371.687 666.521C371.671 670.317 372.372 674.079 373.751 677.593C375.13 681.107 377.16 684.303 379.725 687C382.289 689.696 385.339 691.84 388.699 693.309C392.06 694.778 395.665 695.543 399.309 695.56L580.926 696.433C584.572 696.451 588.186 695.72 591.562 694.282C594.937 692.845 598.007 690.729 600.598 688.055C603.188 685.381 605.247 682.202 606.658 678.7C608.069 675.197 608.804 671.439 608.821 667.64L610.643 203.731C610.686 196.058 607.803 188.681 602.627 183.221C597.451 177.761 590.405 174.666 583.039 174.616V174.616Z" fill="white"/>
<path d="M558.607 634.539L423.56 633.932C422.157 633.932 421.027 632.338 421.046 630.402L421.191 593.599C421.191 591.701 422.339 590.069 423.742 590.069L558.789 590.714C559.566 590.854 560.262 591.302 560.73 591.963C561.199 592.624 561.404 593.449 561.303 594.264L561.176 631.028C561.176 632.983 560.009 634.558 558.607 634.539Z" fill="#407BFF"/>
<path d="M465.728 605.817C465.68 605.409 465.484 605.092 465.14 604.867C464.796 604.641 464.375 604.528 463.875 604.528C463.51 604.528 463.191 604.588 462.917 604.706C462.646 604.824 462.434 604.986 462.28 605.193C462.13 605.4 462.055 605.635 462.055 605.898C462.055 606.118 462.107 606.307 462.212 606.466C462.319 606.621 462.456 606.752 462.623 606.856C462.789 606.958 462.964 607.043 463.146 607.11C463.329 607.175 463.497 607.227 463.65 607.267L464.488 607.493C464.702 607.549 464.941 607.627 465.204 607.726C465.47 607.826 465.724 607.961 465.966 608.133C466.21 608.302 466.411 608.52 466.57 608.786C466.728 609.051 466.807 609.378 466.807 609.764C466.807 610.21 466.691 610.613 466.457 610.972C466.226 611.332 465.888 611.618 465.442 611.83C464.999 612.042 464.461 612.149 463.827 612.149C463.236 612.149 462.725 612.053 462.293 611.863C461.863 611.672 461.525 611.406 461.278 611.065C461.033 610.724 460.895 610.328 460.863 609.877H461.894C461.921 610.188 462.025 610.446 462.208 610.65C462.393 610.852 462.627 611.002 462.909 611.101C463.193 611.198 463.499 611.246 463.827 611.246C464.208 611.246 464.551 611.185 464.854 611.061C465.157 610.935 465.398 610.76 465.575 610.538C465.752 610.312 465.841 610.049 465.841 609.748C465.841 609.474 465.764 609.251 465.611 609.08C465.458 608.908 465.257 608.768 465.007 608.661C464.757 608.553 464.488 608.459 464.198 608.379L463.183 608.089C462.538 607.904 462.028 607.639 461.652 607.295C461.276 606.952 461.088 606.502 461.088 605.946C461.088 605.484 461.213 605.082 461.463 604.738C461.715 604.392 462.054 604.123 462.478 603.932C462.905 603.739 463.381 603.642 463.908 603.642C464.439 603.642 464.912 603.738 465.325 603.928C465.739 604.116 466.066 604.374 466.308 604.702C466.552 605.029 466.681 605.401 466.695 605.817H465.728ZM469.448 603.755V612.004H468.45V603.755H469.448ZM477.992 603.755V612.004H477.025L472.531 605.527H472.45V612.004H471.451V603.755H472.418L476.929 610.248H477.009V603.755H477.992ZM485.629 606.333C485.54 606.062 485.424 605.819 485.279 605.604C485.136 605.386 484.966 605.201 484.767 605.048C484.571 604.895 484.348 604.778 484.099 604.698C483.849 604.617 483.575 604.577 483.277 604.577C482.788 604.577 482.344 604.703 481.944 604.955C481.544 605.208 481.226 605.58 480.989 606.071C480.753 606.562 480.635 607.165 480.635 607.879C480.635 608.594 480.754 609.196 480.993 609.688C481.232 610.179 481.556 610.551 481.964 610.803C482.372 611.056 482.831 611.182 483.341 611.182C483.814 611.182 484.23 611.081 484.59 610.88C484.952 610.676 485.234 610.389 485.436 610.018C485.64 609.645 485.742 609.206 485.742 608.701L486.048 608.765H483.567V607.879H486.708V608.765C486.708 609.445 486.563 610.035 486.273 610.538C485.986 611.04 485.589 611.429 485.081 611.706C484.576 611.979 483.997 612.116 483.341 612.116C482.611 612.116 481.969 611.944 481.416 611.601C480.866 611.257 480.436 610.768 480.127 610.135C479.821 609.501 479.668 608.749 479.668 607.879C479.668 607.227 479.756 606.64 479.93 606.119C480.107 605.596 480.357 605.15 480.679 604.782C481.001 604.414 481.383 604.132 481.823 603.936C482.263 603.74 482.748 603.642 483.277 603.642C483.712 603.642 484.117 603.708 484.493 603.84C484.872 603.969 485.209 604.153 485.504 604.392C485.802 604.628 486.051 604.911 486.249 605.241C486.448 605.569 486.585 605.933 486.66 606.333H485.629ZM497.022 603.755H498.021V609.216C498.021 609.78 497.888 610.284 497.622 610.727C497.359 611.167 496.987 611.515 496.506 611.77C496.026 612.022 495.462 612.149 494.815 612.149C494.168 612.149 493.604 612.022 493.123 611.77C492.643 611.515 492.269 611.167 492.004 610.727C491.74 610.284 491.609 609.78 491.609 609.216V603.755H492.608V609.136C492.608 609.539 492.696 609.897 492.874 610.211C493.051 610.523 493.303 610.768 493.631 610.948C493.961 611.126 494.356 611.214 494.815 611.214C495.274 611.214 495.669 611.126 495.999 610.948C496.329 610.768 496.582 610.523 496.756 610.211C496.933 609.897 497.022 609.539 497.022 609.136V603.755ZM500.015 612.004V603.755H502.802C503.449 603.755 503.978 603.872 504.389 604.106C504.803 604.336 505.109 604.649 505.307 605.044C505.506 605.439 505.606 605.879 505.606 606.365C505.606 606.851 505.506 607.293 505.307 607.69C505.111 608.087 504.808 608.404 504.397 608.641C503.986 608.874 503.46 608.991 502.818 608.991H500.821V608.105H502.786C503.229 608.105 503.585 608.028 503.854 607.875C504.122 607.722 504.317 607.516 504.438 607.255C504.561 606.992 504.623 606.695 504.623 606.365C504.623 606.035 504.561 605.739 504.438 605.479C504.317 605.219 504.121 605.014 503.85 604.867C503.578 604.716 503.219 604.641 502.77 604.641H501.014V612.004H500.015Z" fill="#E8E8E3"/>
<path d="M450.496 310.988L403.635 310.766L403.596 319.725L450.457 319.946L450.496 310.988Z" fill="#407BFF"/>
<path opacity="0.1" d="M450.496 310.988L403.635 310.766L403.596 319.725L450.457 319.946L450.496 310.988Z" fill="black"/>
<path d="M587.868 365.991C588.236 365.952 588.597 365.863 588.943 365.726C589.447 365.52 589.885 365.171 590.208 364.718C590.53 364.264 590.723 363.726 590.765 363.163C590.765 360.145 590.765 355.742 590.765 350.086C590.765 347.258 590.765 344.088 590.765 340.596C590.765 339.742 590.765 338.85 590.765 337.958C590.883 337.092 590.703 336.211 590.255 335.471C590.004 335.117 589.677 334.828 589.301 334.627C588.925 334.426 588.509 334.319 588.086 334.314H585.244H558.916L406.524 333.725C406.134 333.718 405.748 333.81 405.399 333.991C405.05 334.173 404.749 334.44 404.52 334.769C404.08 335.512 403.912 336.394 404.046 337.256C404.046 339.154 404.046 341.052 404.046 342.95C404.046 346.746 404.046 350.542 404.046 354.338C404.046 356.236 404.046 358.134 404.046 360.032C403.971 360.916 403.971 361.805 404.046 362.689C404.142 363.068 404.32 363.419 404.566 363.715C404.813 364.011 405.121 364.244 405.467 364.397C405.826 364.546 406.211 364.617 406.597 364.606H415.871L456.338 364.833L524.845 365.27L571.032 365.65L583.586 365.801H586.847C587.594 365.801 587.959 365.801 587.959 365.801H586.847H583.586H571.032H524.845L456.338 365.574L415.871 365.403H406.597C406.087 365.424 405.578 365.334 405.103 365.137C404.623 364.924 404.196 364.599 403.855 364.188C403.514 363.777 403.268 363.29 403.135 362.765C403.03 362.266 402.993 361.755 403.026 361.246V359.842C403.026 357.944 403.026 356.046 403.026 354.148C403.026 350.352 403.026 346.556 403.026 342.76C403.026 340.862 403.026 338.964 403.026 337.066C402.991 336.56 402.991 336.053 403.026 335.547C403.094 334.989 403.301 334.459 403.627 334.01C403.941 333.552 404.357 333.18 404.84 332.925C405.322 332.671 405.856 332.541 406.397 332.548L558.789 333.422L585.117 333.611H587.959C588.46 333.612 588.953 333.738 589.397 333.979C589.841 334.22 590.223 334.569 590.51 334.997C591.023 335.822 591.231 336.814 591.093 337.787C591.093 338.679 591.093 339.571 591.093 340.425C591.093 343.88 591.093 347.049 591.093 349.915C591.093 355.609 590.965 359.975 590.929 363.011C590.884 363.595 590.68 364.154 590.341 364.621C590.003 365.089 589.543 365.445 589.016 365.65C588.671 365.872 588.273 365.99 587.868 365.991V365.991Z" fill="#E0E0E0"/>
<path d="M503.418 343.253H417.711V351.623H503.418V343.253Z" fill="#407BFF"/>
<path opacity="0.2" d="M503.418 343.253H417.711V351.623H503.418V343.253Z" fill="white"/>
<path d="M450.177 392.713L403.315 392.492L403.276 401.45L450.138 401.672L450.177 392.713Z" fill="#407BFF"/>
<path opacity="0.1" d="M450.177 392.713L403.315 392.492L403.276 401.45L450.138 401.672L450.177 392.713Z" fill="black"/>
<path d="M586.683 447.719C587.051 447.672 587.416 447.602 587.776 447.51C588.285 447.342 588.754 447.061 589.15 446.688C589.546 446.315 589.86 445.857 590.072 445.347C590.359 444.58 590.471 443.755 590.4 442.936C590.4 442.025 590.4 441.038 590.4 439.937C590.4 437.736 590.4 435.23 590.4 432.345V420.293C590.487 419.421 590.302 418.542 589.872 417.788C589.422 417.014 588.715 416.44 587.886 416.174C586.978 416.006 586.054 415.955 585.134 416.023H558.916L407.052 415.434C406.235 415.436 405.447 415.747 404.834 416.309C404.22 416.871 403.824 417.646 403.718 418.49C403.718 420.293 403.718 422.286 403.718 424.184C403.718 427.98 403.718 431.776 403.718 435.572C403.718 437.47 403.718 439.368 403.718 441.266C403.65 442.153 403.687 443.045 403.827 443.923C404.055 444.693 404.523 445.361 405.157 445.821C405.83 446.266 406.621 446.479 407.417 446.429H409.949H415.215L455.536 446.637L523.806 447.074L569.83 447.453L582.347 447.605H585.608H586.701H585.608H582.347H569.83H523.806L455.499 447.529L415.178 447.378H407.253C406.267 447.438 405.289 447.165 404.465 446.599C403.636 446.001 403.031 445.123 402.752 444.113C402.589 443.149 402.54 442.167 402.607 441.19C402.607 439.292 402.607 437.394 402.607 435.496C402.607 431.7 402.607 427.904 402.607 424.108C402.607 422.21 402.607 420.312 402.607 418.414C402.739 417.329 403.248 416.331 404.036 415.608C404.824 414.885 405.838 414.486 406.888 414.485L558.752 415.358L584.971 415.567C585.947 415.505 586.927 415.575 587.886 415.776C588.832 416.098 589.631 416.774 590.127 417.674C590.598 418.51 590.802 419.48 590.71 420.445C590.71 421.337 590.71 422.21 590.71 423.083C590.71 426.519 590.71 429.669 590.71 432.573C590.71 435.477 590.71 437.926 590.71 440.165C590.71 441.247 590.71 442.253 590.71 443.183C590.776 444.032 590.645 444.885 590.327 445.669C590.091 446.193 589.749 446.657 589.324 447.031C588.9 447.404 588.403 447.678 587.867 447.833C587.469 447.867 587.069 447.829 586.683 447.719V447.719Z" fill="#E0E0E0"/>
<path d="M449.824 477.988L402.962 477.766L402.923 486.725L449.785 486.946L449.824 477.988Z" fill="#407BFF"/>
<path opacity="0.1" d="M449.824 477.988L402.962 477.766L402.923 486.725L449.785 486.946L449.824 477.988Z" fill="black"/>
<path d="M586.319 532.958C586.687 532.913 587.053 532.843 587.412 532.75C587.919 532.582 588.386 532.304 588.781 531.934C589.177 531.565 589.493 531.111 589.708 530.605C589.994 529.838 590.106 529.014 590.036 528.195C590.036 527.265 590.036 526.297 590.036 525.177C590.036 522.994 590.036 520.47 590.036 517.585V505.532C590.123 504.66 589.938 503.781 589.508 503.027C589.047 502.268 588.344 501.703 587.522 501.433C586.615 501.257 585.691 501.2 584.77 501.262H558.552L406.688 500.674C405.871 500.676 405.083 500.986 404.47 501.549C403.856 502.111 403.46 502.886 403.354 503.729C403.354 505.627 403.354 507.525 403.354 509.423C403.354 513.219 403.354 517.015 403.354 520.811C403.354 522.709 403.354 524.607 403.354 526.505C403.286 527.386 403.323 528.272 403.463 529.144C403.681 529.918 404.152 530.589 404.793 531.042C405.462 531.496 406.256 531.71 407.053 531.649H414.978L455.299 531.877L523.569 532.313L569.593 532.693L582.11 532.845H585.372C586.1 532.845 586.465 532.845 586.465 532.845C586.465 532.845 586.1 532.845 585.372 532.845H582.11H569.593H523.569L455.299 532.636L414.978 532.465H407.053C406.066 532.534 405.086 532.261 404.265 531.687C403.436 531.089 402.831 530.21 402.552 529.2C402.389 528.236 402.34 527.254 402.406 526.278C402.406 524.38 402.406 522.482 402.406 520.584C402.406 516.788 402.406 512.992 402.406 509.196C402.406 507.298 402.406 505.4 402.406 503.407C402.535 502.323 403.04 501.326 403.825 500.602C404.61 499.879 405.622 499.479 406.67 499.478L558.534 500.351L584.752 500.56C585.729 500.497 586.708 500.567 587.667 500.768C588.614 501.091 589.412 501.767 589.908 502.666C590.38 503.502 590.584 504.473 590.491 505.437C590.491 506.33 590.491 507.222 590.491 508.076C590.491 511.511 590.491 514.662 590.491 517.566C590.491 520.47 590.491 522.918 590.491 525.158C590.491 526.24 590.491 527.246 590.491 528.176C590.561 529.024 590.43 529.878 590.109 530.662C589.872 531.186 589.53 531.65 589.106 532.023C588.681 532.397 588.184 532.67 587.649 532.826C587.222 532.978 586.766 533.023 586.319 532.958V532.958Z" fill="#E0E0E0"/>
<path d="M501.589 427.348L415.883 426.942L415.846 435.312L501.552 435.718L501.589 427.348Z" fill="#407BFF"/>
<path opacity="0.2" d="M501.589 427.348L415.883 426.942L415.846 435.312L501.552 435.718L501.589 427.348Z" fill="white"/>
<path d="M423.632 517.471C423.579 518.234 423.311 518.964 422.862 519.571C422.414 520.177 421.804 520.633 421.109 520.882C420.415 521.131 419.665 521.162 418.953 520.971C418.241 520.78 417.599 520.376 417.106 519.808C416.613 519.241 416.291 518.535 416.179 517.778C416.068 517.021 416.172 516.247 416.479 515.552C416.786 514.856 417.282 514.27 417.906 513.865C418.53 513.461 419.254 513.256 419.988 513.276C421.003 513.335 421.955 513.808 422.637 514.594C423.32 515.379 423.677 516.413 423.632 517.471V517.471Z" fill="#407BFF"/>
<path d="M435.239 517.528C435.275 518.063 435.204 518.6 435.032 519.105C434.861 519.611 434.591 520.074 434.239 520.467C433.888 520.859 433.463 521.172 432.991 521.386C432.519 521.599 432.009 521.71 431.495 521.71C430.98 521.71 430.47 521.599 429.998 521.386C429.526 521.172 429.101 520.859 428.75 520.467C428.399 520.074 428.129 519.611 427.957 519.105C427.785 518.6 427.715 518.063 427.75 517.528C427.715 516.993 427.785 516.456 427.957 515.95C428.129 515.444 428.399 514.981 428.75 514.589C429.101 514.197 429.526 513.884 429.998 513.67C430.47 513.456 430.98 513.346 431.495 513.346C432.009 513.346 432.519 513.456 432.991 513.67C433.463 513.884 433.888 514.197 434.239 514.589C434.591 514.981 434.861 515.444 435.032 515.95C435.204 516.456 435.275 516.993 435.239 517.528V517.528Z" fill="#407BFF"/>
<path d="M446.863 517.585C446.81 518.348 446.542 519.078 446.093 519.685C445.645 520.291 445.036 520.747 444.341 520.996C443.646 521.245 442.896 521.276 442.184 521.085C441.473 520.894 440.83 520.49 440.337 519.922C439.844 519.354 439.522 518.648 439.41 517.892C439.299 517.135 439.403 516.361 439.71 515.666C440.017 514.97 440.513 514.384 441.137 513.979C441.761 513.575 442.485 513.37 443.219 513.39C444.233 513.454 445.182 513.928 445.863 514.713C446.544 515.497 446.903 516.528 446.863 517.585Z" fill="#407BFF"/>
<path d="M458.47 517.642C458.416 518.405 458.148 519.135 457.7 519.742C457.251 520.348 456.642 520.804 455.947 521.053C455.252 521.302 454.502 521.333 453.79 521.142C453.079 520.951 452.436 520.547 451.943 519.979C451.45 519.411 451.128 518.706 451.016 517.949C450.905 517.192 451.009 516.418 451.316 515.723C451.623 515.027 452.119 514.441 452.743 514.036C453.367 513.632 454.091 513.427 454.826 513.447C455.839 513.511 456.788 513.986 457.469 514.77C458.15 515.554 458.51 516.585 458.47 517.642Z" fill="#407BFF"/>
<path d="M470.076 517.679C470.025 518.444 469.761 519.176 469.314 519.785C468.868 520.395 468.259 520.853 467.564 521.105C466.869 521.357 466.119 521.39 465.406 521.201C464.693 521.013 464.049 520.609 463.554 520.042C463.059 519.475 462.735 518.769 462.622 518.012C462.509 517.255 462.613 516.48 462.919 515.783C463.226 515.086 463.722 514.499 464.347 514.094C464.971 513.688 465.696 513.483 466.432 513.504C467.442 513.568 468.388 514.04 469.069 514.82C469.75 515.6 470.111 516.626 470.076 517.679Z" fill="#407BFF"/>
<path d="M481.7 517.736C481.65 518.497 481.388 519.226 480.946 519.833C480.503 520.441 479.9 520.9 479.21 521.155C478.521 521.41 477.775 521.45 477.064 521.269C476.353 521.088 475.708 520.694 475.209 520.136C474.71 519.578 474.379 518.881 474.255 518.129C474.132 517.378 474.222 516.605 474.515 515.906C474.808 515.208 475.291 514.613 475.903 514.197C476.516 513.78 477.233 513.559 477.965 513.561C478.991 513.6 479.96 514.062 480.66 514.845C481.36 515.627 481.734 516.667 481.7 517.736V517.736Z" fill="#407BFF"/>
<path d="M493.306 517.793C493.342 518.328 493.271 518.865 493.1 519.371C492.928 519.877 492.658 520.34 492.307 520.732C491.955 521.125 491.53 521.437 491.058 521.651C490.586 521.865 490.077 521.975 489.562 521.975C489.047 521.975 488.537 521.865 488.065 521.651C487.593 521.437 487.168 521.125 486.817 520.732C486.466 520.34 486.196 519.877 486.024 519.371C485.852 518.865 485.782 518.328 485.817 517.793C485.782 517.258 485.852 516.721 486.024 516.216C486.196 515.71 486.466 515.247 486.817 514.854C487.168 514.462 487.593 514.149 488.065 513.935C488.537 513.722 489.047 513.611 489.562 513.611C490.077 513.611 490.586 513.722 491.058 513.935C491.53 514.149 491.955 514.462 492.307 514.854C492.658 515.247 492.928 515.71 493.1 516.216C493.271 516.721 493.342 517.258 493.306 517.793Z" fill="#407BFF"/>
<path d="M504.912 517.85C504.863 518.611 504.6 519.34 504.158 519.947C503.716 520.555 503.113 521.014 502.423 521.269C501.733 521.524 500.987 521.564 500.276 521.383C499.565 521.202 498.921 520.808 498.422 520.25C497.923 519.692 497.591 518.995 497.468 518.243C497.345 517.492 497.435 516.719 497.728 516.02C498.021 515.322 498.503 514.727 499.116 514.311C499.729 513.894 500.445 513.673 501.177 513.675C502.204 513.714 503.173 514.176 503.873 514.959C504.573 515.741 504.947 516.781 504.912 517.85V517.85Z" fill="#407BFF"/>
<path d="M516.518 517.907C516.468 518.672 516.203 519.404 515.757 520.013C515.31 520.622 514.702 521.081 514.007 521.333C513.312 521.585 512.561 521.618 511.848 521.429C511.135 521.24 510.491 520.837 509.997 520.27C509.502 519.703 509.178 518.997 509.065 518.24C508.952 517.482 509.055 516.707 509.362 516.011C509.669 515.314 510.165 514.727 510.789 514.321C511.414 513.916 512.139 513.711 512.874 513.732C513.884 513.795 514.831 514.267 515.511 515.048C516.192 515.828 516.553 516.854 516.518 517.907V517.907Z" fill="#407BFF"/>
<g opacity="0.2">
<path d="M423.632 517.471C423.579 518.234 423.311 518.964 422.862 519.571C422.414 520.177 421.804 520.633 421.109 520.882C420.415 521.131 419.665 521.162 418.953 520.971C418.241 520.78 417.599 520.376 417.106 519.808C416.613 519.241 416.291 518.535 416.179 517.778C416.068 517.021 416.172 516.247 416.479 515.552C416.786 514.856 417.282 514.27 417.906 513.865C418.53 513.461 419.254 513.256 419.988 513.276C421.003 513.335 421.955 513.808 422.637 514.594C423.32 515.379 423.677 516.413 423.632 517.471V517.471Z" fill="white"/>
<path d="M435.239 517.528C435.275 518.063 435.204 518.6 435.032 519.105C434.86 519.611 434.59 520.074 434.239 520.467C433.888 520.859 433.463 521.172 432.991 521.385C432.519 521.599 432.009 521.71 431.494 521.71C430.98 521.71 430.47 521.599 429.998 521.385C429.526 521.172 429.101 520.859 428.75 520.467C428.398 520.074 428.128 519.611 427.957 519.105C427.785 518.6 427.714 518.063 427.75 517.528C427.714 516.993 427.785 516.455 427.957 515.95C428.128 515.444 428.398 514.981 428.75 514.589C429.101 514.196 429.526 513.884 429.998 513.67C430.47 513.456 430.98 513.345 431.494 513.345C432.009 513.345 432.519 513.456 432.991 513.67C433.463 513.884 433.888 514.196 434.239 514.589C434.59 514.981 434.86 515.444 435.032 515.95C435.204 516.455 435.275 516.993 435.239 517.528V517.528Z" fill="white"/>
<path d="M446.863 517.585C446.81 518.348 446.542 519.078 446.093 519.685C445.645 520.291 445.035 520.747 444.34 520.996C443.646 521.245 442.896 521.276 442.184 521.085C441.472 520.894 440.83 520.49 440.337 519.922C439.844 519.354 439.522 518.648 439.41 517.892C439.299 517.135 439.403 516.361 439.71 515.666C440.017 514.97 440.513 514.384 441.137 513.979C441.761 513.575 442.485 513.37 443.219 513.39C444.233 513.454 445.182 513.928 445.863 514.713C446.544 515.497 446.903 516.528 446.863 517.585Z" fill="white"/>
<path d="M458.469 517.642C458.416 518.405 458.148 519.135 457.699 519.742C457.251 520.348 456.641 520.804 455.946 521.053C455.252 521.302 454.502 521.333 453.79 521.142C453.078 520.951 452.436 520.547 451.943 519.979C451.45 519.411 451.128 518.706 451.016 517.949C450.905 517.192 451.009 516.418 451.316 515.723C451.623 515.027 452.119 514.441 452.743 514.036C453.367 513.632 454.091 513.427 454.825 513.447C455.839 513.511 456.788 513.986 457.469 514.77C458.15 515.554 458.509 516.585 458.469 517.642Z" fill="white"/>
<path d="M470.076 517.679C470.025 518.444 469.76 519.176 469.314 519.785C468.867 520.395 468.259 520.853 467.564 521.105C466.869 521.357 466.119 521.39 465.406 521.201C464.693 521.013 464.049 520.609 463.554 520.042C463.059 519.475 462.735 518.769 462.622 518.012C462.509 517.255 462.613 516.48 462.919 515.783C463.226 515.086 463.722 514.499 464.347 514.094C464.971 513.688 465.696 513.483 466.432 513.504C467.442 513.568 468.388 514.04 469.069 514.82C469.749 515.6 470.111 516.626 470.076 517.679Z" fill="white"/>
<path d="M481.7 517.736C481.65 518.497 481.388 519.226 480.945 519.833C480.503 520.441 479.9 520.9 479.21 521.155C478.521 521.41 477.774 521.45 477.063 521.269C476.353 521.087 475.708 520.694 475.209 520.136C474.71 519.578 474.379 518.881 474.255 518.129C474.132 517.378 474.222 516.605 474.515 515.906C474.808 515.208 475.29 514.613 475.903 514.196C476.516 513.78 477.233 513.559 477.964 513.561C478.991 513.6 479.96 514.062 480.66 514.845C481.36 515.627 481.734 516.667 481.7 517.736V517.736Z" fill="white"/>
<path d="M493.306 517.793C493.342 518.328 493.271 518.865 493.099 519.371C492.928 519.877 492.658 520.34 492.306 520.732C491.955 521.125 491.53 521.437 491.058 521.651C490.586 521.865 490.076 521.975 489.562 521.975C489.047 521.975 488.537 521.865 488.065 521.651C487.593 521.437 487.168 521.125 486.817 520.732C486.465 520.34 486.196 519.877 486.024 519.371C485.852 518.865 485.781 518.328 485.817 517.793C485.781 517.258 485.852 516.721 486.024 516.216C486.196 515.71 486.465 515.247 486.817 514.854C487.168 514.462 487.593 514.149 488.065 513.935C488.537 513.722 489.047 513.611 489.562 513.611C490.076 513.611 490.586 513.722 491.058 513.935C491.53 514.149 491.955 514.462 492.306 514.854C492.658 515.247 492.928 515.71 493.099 516.216C493.271 516.721 493.342 517.258 493.306 517.793Z" fill="white"/>
<path d="M504.912 517.85C504.863 518.611 504.6 519.34 504.158 519.947C503.716 520.555 503.113 521.014 502.423 521.269C501.733 521.524 500.987 521.564 500.276 521.383C499.565 521.201 498.921 520.808 498.422 520.25C497.923 519.692 497.591 518.995 497.468 518.243C497.345 517.492 497.435 516.719 497.728 516.02C498.021 515.322 498.503 514.727 499.116 514.31C499.729 513.894 500.445 513.673 501.177 513.675C502.203 513.714 503.173 514.176 503.873 514.959C504.573 515.741 504.947 516.781 504.912 517.85V517.85Z" fill="white"/>
<path d="M516.518 517.907C516.468 518.672 516.203 519.404 515.757 520.013C515.31 520.622 514.702 521.081 514.007 521.333C513.312 521.585 512.561 521.618 511.848 521.429C511.135 521.24 510.491 520.837 509.996 520.27C509.502 519.703 509.178 518.997 509.065 518.24C508.952 517.482 509.055 516.707 509.362 516.011C509.669 515.314 510.165 514.727 510.789 514.321C511.414 513.916 512.139 513.711 512.874 513.732C513.884 513.795 514.831 514.268 515.511 515.048C516.192 515.828 516.553 516.854 516.518 517.907V517.907Z" fill="white"/>
</g>
<path d="M500.029 243.912C501.295 243.331 502.369 242.376 503.117 241.164C503.865 239.953 504.255 238.539 504.238 237.098C504.285 236.162 504.149 235.225 503.837 234.345C503.526 233.465 503.046 232.661 502.426 231.981C501.806 231.3 501.06 230.759 500.233 230.389C499.406 230.018 498.515 229.828 497.615 229.828C496.715 229.828 495.824 230.018 494.997 230.389C494.17 230.759 493.424 231.3 492.804 231.981C492.185 232.661 491.704 233.465 491.393 234.345C491.081 235.225 490.945 236.162 490.992 237.098C490.964 238.553 491.351 239.984 492.103 241.21C492.856 242.437 493.94 243.403 495.219 243.988C485.016 245.582 485.471 257.122 485.471 257.122L509.595 257.236C509.595 257.236 510.16 245.487 500.029 243.912Z" fill="#407BFF"/>
<path opacity="0.1" d="M500.029 243.912C501.295 243.331 502.369 242.376 503.117 241.164C503.865 239.953 504.255 238.539 504.238 237.098C504.285 236.162 504.149 235.225 503.837 234.345C503.526 233.465 503.046 232.661 502.426 231.981C501.806 231.3 501.06 230.759 500.233 230.389C499.406 230.018 498.515 229.828 497.615 229.828C496.715 229.828 495.824 230.018 494.997 230.389C494.17 230.759 493.424 231.3 492.804 231.981C492.185 232.661 491.704 233.465 491.393 234.345C491.081 235.225 490.945 236.162 490.992 237.098C490.964 238.553 491.351 239.984 492.103 241.21C492.856 242.437 493.94 243.403 495.219 243.988C485.016 245.582 485.471 257.122 485.471 257.122L509.595 257.236C509.595 257.236 510.16 245.487 500.029 243.912Z" fill="black"/>
<path d="M539.229 264.679L453.25 264.272L453.203 274.977L539.183 275.384L539.229 264.679Z" fill="#407BFF"/>
<path opacity="0.2" d="M539.229 264.679L453.25 264.272L453.203 274.977L539.183 275.384L539.229 264.679Z" fill="white"/>
<path d="M223.141 320.155H222.285L219.807 320.344C218.466 320.428 217.133 320.612 215.817 320.895C214.965 321.02 214.119 321.191 213.284 321.407L210.46 322.224C205.653 323.76 201.118 326.099 197.032 329.151C191.633 333.233 187.125 338.46 183.804 344.487C181.852 347.961 180.299 351.663 179.176 355.514C177.997 359.701 177.317 364.023 177.154 368.383C177.045 370.673 177.082 372.968 177.263 375.254C177.263 376.411 177.573 377.569 177.719 378.746C177.841 379.932 178.055 381.106 178.357 382.257C179.995 389.873 183.319 396.985 188.064 403.026C192.809 409.066 198.844 413.868 205.687 417.048C210.639 419.274 215.947 420.516 221.338 420.711C226.905 421.03 232.478 420.198 237.736 418.262L239.339 417.636H239.558L239.74 417.75L262.715 429.897L262.041 430.504C259.581 422.571 257.213 414.884 254.917 407.501V407.216L255.117 407.007C260.691 401.159 264.828 393.998 267.179 386.129C269.308 378.936 269.929 371.35 269.001 363.885C268.175 357.25 266.127 350.844 262.97 345.018C260.249 340.014 256.738 335.523 252.585 331.732C249.158 328.733 245.366 326.218 241.307 324.254C238.235 322.874 235.036 321.825 231.759 321.123L228.115 320.496L225.473 320.288L223.87 320.174H223.323C223.505 320.153 223.688 320.153 223.87 320.174H225.492L228.134 320.288L231.778 320.838C235.095 321.489 238.338 322.5 241.452 323.856C245.582 325.796 249.442 328.305 252.931 331.315C257.16 335.088 260.746 339.58 263.535 344.601C266.782 350.489 268.893 356.982 269.748 363.714C270.754 371.294 270.175 379.012 268.054 386.338C265.688 394.37 261.486 401.684 255.81 407.652L255.919 407.159C258.215 414.542 260.602 422.229 263.08 430.144L263.426 431.302L262.387 430.751L239.412 418.623H239.813L238.173 419.249C232.814 421.214 227.138 422.065 221.465 421.755C215.958 421.536 210.539 420.249 205.486 417.959C195.847 413.658 187.828 406.184 182.656 396.682C180.277 392.293 178.539 387.56 177.5 382.637C177.216 381.456 177.003 380.258 176.862 379.05C176.717 377.854 176.48 376.677 176.425 375.5C175.932 368.747 176.617 361.956 178.448 355.457C179.598 351.553 181.195 347.806 183.203 344.297C186.603 338.215 191.205 332.956 196.704 328.867C200.858 325.807 205.469 323.485 210.351 321.996L213.211 321.237C214.053 321.033 214.905 320.875 215.762 320.762C217.092 320.506 218.438 320.353 219.789 320.307L222.285 320.212C222.569 320.172 222.855 320.153 223.141 320.155Z" fill="#407BFF"/>
<path d="M233.526 364.416H230.156L222.868 353.749V346.746C222.868 346.746 217.657 346.404 218.276 355.571C218.896 364.739 218.276 362.404 218.276 362.404C218.276 362.404 207.217 362.404 206.306 363.448C205.395 364.492 205.34 375.614 205.212 381.821C205.143 383.317 205.555 384.794 206.383 386.019C207.212 387.243 208.409 388.144 209.786 388.578C210.171 388.689 210.57 388.746 210.97 388.748C213.739 388.748 227.823 386.414 227.823 386.414H233.636L233.526 364.416Z" fill="#407BFF"/>
<path d="M243.165 362.537L241.088 386.528H235.33V363.03L243.165 362.537Z" fill="#407BFF"/>
<path d="M311.835 850.949V834.721L283.904 834.513L283.667 859.054L285.398 859.187C293.105 859.699 324.608 860.458 329.782 858.788C335.54 856.928 311.835 850.949 311.835 850.949Z" fill="#407BFF"/>
<path d="M330.438 857.27C330.438 857.535 319.98 857.763 307.098 857.763C294.216 857.763 283.758 857.535 283.758 857.27C283.758 857.004 294.216 856.776 307.098 856.776C319.98 856.776 330.438 857.004 330.438 857.27Z" fill="#263238"/>
<path d="M312.327 854.271C312.09 854.138 312.327 853.284 312.892 852.373C313.457 851.462 314.222 851.082 314.404 851.272C314.586 851.462 314.204 852.183 313.657 852.961C313.111 853.739 312.564 854.404 312.327 854.271Z" fill="#263238"/>
<path d="M314.112 855.334C313.857 855.334 313.985 854.271 314.532 853.265C315.078 852.259 315.807 851.652 316.007 851.803C316.208 851.955 315.88 852.809 315.37 853.701C314.859 854.593 314.349 855.429 314.112 855.334Z" fill="#263238"/>
<path d="M292.176 857.194C292.067 857.194 291.648 856.852 291.047 856.131C290.313 855.204 289.495 854.352 288.605 853.587C287.73 852.859 286.688 852.381 285.581 852.202C284.725 852.088 284.178 852.202 284.123 852.088C284.069 851.974 284.597 851.576 285.599 851.5C286.922 851.471 288.212 851.927 289.243 852.79C290.209 853.611 291.024 854.608 291.648 855.732C292.067 856.567 292.286 857.118 292.176 857.194Z" fill="#263238"/>
<path d="M312.418 851.215C312.546 851.443 312.072 852.012 311.27 852.316C310.469 852.619 309.758 852.506 309.722 852.316C309.685 852.126 310.25 851.727 310.942 851.462C311.635 851.196 312.272 850.987 312.418 851.215Z" fill="#263238"/>
<path d="M311.981 849.64C311.981 849.924 311.253 850.152 310.305 850.171C309.358 850.19 308.611 849.962 308.629 849.696C308.647 849.431 309.394 849.184 310.305 849.165C311.216 849.146 311.945 849.374 311.981 849.64Z" fill="#263238"/>
<path d="M380.616 850.949V834.721L352.685 834.513L352.448 858.807L354.179 858.94C361.886 859.452 393.407 860.458 398.563 858.788C404.32 856.928 380.616 850.949 380.616 850.949Z" fill="#407BFF"/>
<path d="M399.218 857.308C399.218 857.573 388.778 857.801 375.878 857.801C362.979 857.801 352.557 857.573 352.557 857.308C352.557 857.042 362.997 856.814 375.878 856.814C388.76 856.814 399.218 857.042 399.218 857.308Z" fill="#263238"/>
<path d="M381.108 854.271C380.889 854.138 381.108 853.284 381.673 852.373C382.238 851.462 383.003 851.082 383.185 851.272C383.367 851.462 382.985 852.183 382.438 852.961C381.891 853.739 381.345 854.404 381.108 854.271Z" fill="#263238"/>
<path d="M382.894 855.334C382.657 855.334 382.766 854.271 383.331 853.265C383.896 852.259 384.607 851.652 384.807 851.803C385.007 851.955 384.661 852.809 384.151 853.701C383.641 854.593 383.149 855.429 382.894 855.334Z" fill="#263238"/>
<path d="M360.957 857.194C360.847 857.194 360.446 856.852 359.827 856.131C359.093 855.204 358.275 854.352 357.385 853.587C356.51 852.859 355.468 852.381 354.361 852.202C353.523 852.088 352.958 852.202 352.903 852.088C352.849 851.974 353.377 851.576 354.379 851.5C355.702 851.471 356.992 851.927 358.023 852.79C358.995 853.605 359.81 854.603 360.428 855.732C360.847 856.567 361.066 857.118 360.957 857.194Z" fill="#263238"/>
<path d="M381.199 851.215C381.326 851.443 380.853 852.012 380.051 852.316C379.249 852.619 378.539 852.506 378.502 852.316C378.466 852.126 379.031 851.727 379.723 851.462C380.415 851.196 381.053 850.987 381.199 851.215Z" fill="#263238"/>
<path d="M380.798 849.64C380.798 849.924 380.069 850.152 379.122 850.171C378.174 850.19 377.445 849.962 377.464 849.696C377.482 849.431 378.211 849.184 379.122 849.165C380.033 849.146 380.798 849.374 380.798 849.64Z" fill="#263238"/>
<path d="M483.523 369.047C482.794 368.269 480.99 368.648 480.99 368.648C481.171 367.556 481.171 366.439 480.99 365.346C480.662 364.283 478.367 364.492 478.367 364.492C478.261 363.597 478.261 362.692 478.367 361.797C478.385 361.598 478.344 361.399 478.249 361.226C478.155 361.052 478.011 360.914 477.838 360.829C476.752 360.367 475.585 360.147 474.413 360.183C473.01 359.139 478.695 350.845 480.808 348.188C482.922 345.531 482.539 343.462 480.662 343.462C479.369 343.462 472.737 351.434 470.696 354.11C468.655 356.786 463.244 364.226 463.062 358.285C462.88 352.345 460.584 347.865 459.144 347.106C457.705 346.347 456.175 348.131 456.958 349.782C457.646 351.658 458.076 353.626 458.233 355.628C458.431 357.223 458.364 358.841 458.033 360.411C457.429 363.333 456.607 366.201 455.573 368.99H455.428C455.428 368.99 415.672 408.715 412.793 411.543C410.224 414.086 358.552 408.525 348.185 407.387C344.662 406.85 341.104 406.596 337.544 406.627C333.044 406.836 332.242 407.5 327.76 407.557C316.441 407.688 305.148 408.723 293.98 410.651C288.923 411.547 284.2 413.872 280.325 417.373C276.45 420.874 273.573 425.416 272.007 430.504C261.567 464.478 237.917 544.897 233.745 590.069C230.592 596.025 227.746 602.152 225.218 608.423C222.284 616.736 222.995 617.021 223.979 617.21C226.639 617.723 229.664 602.805 230.793 606.411C231.923 610.017 225.054 624.195 227.842 624.613C231.486 625.144 234.383 609.429 234.729 608.176C235.075 606.923 236.879 607.322 236.551 608.499C236.022 610.169 230.903 627.877 234.474 628.447C236.441 628.75 236.66 625.011 236.66 625.011C236.66 625.011 240.304 608.062 241.962 608.404C243.62 608.745 241.853 618.748 241.015 622.088C240.177 625.429 241.343 627.118 243.055 626.302C244.221 625.733 247.009 615.578 247.774 612.276C248.54 608.973 250.453 599.825 253.022 605.12C255.591 610.416 259.49 613.49 261.093 613.566C261.454 613.523 261.795 613.368 262.071 613.121C262.347 612.874 262.546 612.547 262.642 612.182C262.738 611.817 262.727 611.43 262.61 611.071C262.493 610.712 262.276 610.398 261.986 610.169C260.607 608.766 259.423 607.169 258.469 605.424C257.619 604.065 257.003 602.562 256.647 600.983C255.913 597.834 255.486 594.616 255.372 591.379L255.08 589.481C259.162 568.432 270.914 506.652 287.876 467.193L294.837 482.111L297.861 493.157L279.313 540.854L358.424 539.772L346.618 492.436L360.957 443.088C376.462 443.449 416.273 444.056 422.905 440.924C431.25 437.128 474.413 380.34 474.413 380.34C477.226 378.063 479.921 375.63 482.484 373.052C482.484 373.052 485.108 370.755 483.523 369.047Z" fill="#FFBE9D"/>
<path d="M275.833 505.608C278.128 497.447 289.917 457.095 289.917 457.095C289.917 457.095 295.711 489.988 294.18 493.954C292.772 497.35 291.109 500.625 289.206 503.748C275.833 524.949 277.582 535.559 277.582 535.559L358.387 532.996C358.57 521.229 351.883 493.859 350.498 489.494C349.113 485.129 353.723 470.837 353.723 470.837C353.723 470.837 362.833 461.176 362.505 456.203C362.332 451.736 361.802 447.292 360.92 442.917L410.114 444.815L408.565 410.082L337.908 402.718C335.448 409.949 313.202 406.4 313.202 406.4C289.188 407.235 287.694 411.828 277.709 419.913C267.725 427.999 251.199 497.39 251.199 497.39L275.833 505.608Z" fill="#407BFF"/>
<path d="M323.605 497.39C322.205 497.65 320.779 497.727 319.36 497.618C316.718 497.618 313.092 497.428 309.102 497.01C305.112 496.593 301.505 496.004 298.936 495.473C297.519 495.283 296.13 494.913 294.8 494.372C296.224 494.373 297.645 494.512 299.045 494.79C301.632 495.131 305.221 495.606 309.193 496.023C313.165 496.441 316.773 496.725 319.378 496.915C320.799 496.934 322.214 497.093 323.605 497.39V497.39Z" fill="#263238"/>
<path d="M329.144 490.234C327.743 490.949 326.262 491.478 324.735 491.81C317.466 493.799 309.966 494.726 302.452 494.562C300.897 494.614 299.342 494.461 297.824 494.106C299.359 493.904 300.905 493.822 302.452 493.859C305.312 493.765 309.248 493.556 313.584 493.024C317.921 492.493 321.783 491.734 324.516 491.126C326.034 490.704 327.582 490.406 329.144 490.234V490.234Z" fill="#263238"/>
<path d="M356.329 458.31C356.292 459.757 356.103 461.195 355.764 462.599C355.29 465.238 354.562 468.844 353.632 472.792C352.703 476.74 351.81 480.384 351.009 482.851C350.686 484.263 350.209 485.633 349.588 486.932C349.689 485.489 349.946 484.063 350.353 482.68C351.045 479.719 351.829 476.303 352.703 472.564C353.578 468.825 354.416 465.408 355.108 462.448C355.355 461.022 355.765 459.633 356.329 458.31V458.31Z" fill="#263238"/>
<path d="M276.689 500.768C272.474 500.09 268.314 499.081 264.245 497.75C260.087 496.738 256.006 495.405 252.037 493.765C256.25 494.454 260.41 495.462 264.482 496.782C268.641 497.792 272.721 499.124 276.689 500.768V500.768Z" fill="#263238"/>
<path d="M361.794 442.5C361.107 442.623 360.404 442.623 359.717 442.5C357.814 442.296 355.945 441.83 354.16 441.114C351.179 439.947 348.466 438.144 346.194 435.82C343.922 433.496 342.142 430.703 340.969 427.619C339.671 424.228 339.117 420.577 339.347 416.934C339.428 413.929 340.291 411.003 341.843 408.469C342.935 406.761 344.566 405.506 346.453 404.919C346.957 404.774 347.478 404.704 348.002 404.71C348.366 404.71 348.548 404.71 348.548 404.71C348.548 404.71 347.783 404.71 346.562 405.223C344.831 405.889 343.363 407.138 342.39 408.772C339.912 412.834 339.22 420.255 341.861 427.183C343.091 430.449 345.016 433.383 347.491 435.762C349.52 437.709 351.856 439.275 354.397 440.393C356.781 441.375 359.262 442.081 361.794 442.5V442.5Z" fill="#263238"/>
<path d="M404.265 444.132C403.81 438.312 403.664 432.469 403.828 426.632C403.685 420.8 403.856 414.964 404.338 409.152C404.794 414.966 404.94 420.801 404.776 426.632C404.929 432.471 404.758 438.314 404.265 444.132V444.132Z" fill="#263238"/>
<path d="M337.434 404.843C337.635 400.611 338.054 395.828 338.054 395.828C338.054 395.828 348.111 394.67 348.713 383.851C349.314 373.033 348.713 348.074 348.713 348.074L330.493 338.356L310.268 354.926L313.384 409.019L331.932 410.253C333.35 410.293 334.725 409.747 335.757 408.733C336.788 407.719 337.392 406.32 337.434 404.843V404.843Z" fill="#FFBE9D"/>
<path d="M339.239 375.292C339.239 375.292 339.239 375.5 339.075 375.747C338.939 375.926 338.764 376.068 338.564 376.161C338.364 376.253 338.145 376.294 337.927 376.278C336.761 376.278 335.631 374.874 335.23 373.242C335.04 372.45 335.04 371.622 335.23 370.831C335.268 370.486 335.387 370.156 335.578 369.871C335.769 369.586 336.025 369.355 336.324 369.199C336.569 369.094 336.844 369.094 337.089 369.199C337.27 369.293 337.418 369.446 337.508 369.635C337.635 369.958 337.508 370.167 337.508 370.148C337.508 370.129 337.508 369.958 337.326 369.768C337.23 369.632 337.09 369.538 336.932 369.503C336.774 369.468 336.609 369.495 336.469 369.579C336.246 369.719 336.06 369.917 335.93 370.152C335.799 370.388 335.728 370.654 335.722 370.926C335.569 371.632 335.569 372.365 335.722 373.071C336.087 374.551 337.071 375.747 337.945 375.861C338.116 375.885 338.29 375.872 338.456 375.823C338.623 375.774 338.777 375.69 338.911 375.576C339.129 375.424 339.202 375.273 339.239 375.292Z" fill="#EB996E"/>
<path d="M354.962 342.228C353.559 337.256 348.476 334.788 343.848 333.422C336.797 331.334 329.181 330.423 322.294 333.061C315.407 335.699 307.135 340.33 307.135 348.245C303.072 347.903 300.739 351.604 299.136 356.198C298.111 358.996 297.497 361.939 297.314 364.928V364.928C296.804 375.291 294.016 389.602 287.566 397.194C283.922 401.427 278.875 404.35 276.798 409.626C274.976 414.2 275.924 419.629 274.229 424.26C272.717 428.341 269.383 431.245 266.941 434.794C264.454 438.82 262.99 443.439 262.687 448.217C262.385 452.994 263.253 457.774 265.21 462.106C267.182 466.327 269.958 470.086 273.369 473.153C276.781 476.22 280.755 478.532 285.052 479.947C293.563 482.644 302.638 482.737 311.198 480.213C317.622 478.613 323.614 475.518 328.725 471.159C333.955 466.711 337.547 460.515 338.892 453.622C340.186 445.878 338.109 438.001 336.56 430.296C331.713 405.944 333.098 404.673 339.22 382.067C339.366 381.669 339.439 381.251 339.548 380.853C339.657 380.454 339.712 380.264 339.785 379.961C339.959 379.067 340.05 378.158 340.058 377.246C339.164 377.593 338.194 377.666 337.261 377.458C336.328 377.249 335.472 376.768 334.793 376.07C334.112 375.325 333.637 374.403 333.419 373.401C333.201 372.398 333.248 371.353 333.554 370.376C333.984 369.307 334.624 368.344 335.434 367.55C336.244 366.755 337.205 366.147 338.254 365.764C340.277 364.89 342.445 364.435 344.431 363.467C348.64 361.379 351.555 357.052 353.541 352.515C355.174 349.371 355.678 345.724 354.962 342.228V342.228Z" fill="#263238"/>
<path d="M339.967 375.804C340.352 376.396 340.67 377.033 340.915 377.702C341.461 378.898 342.19 380.587 342.992 382.542L343.138 382.902H342.755L340.933 383.073C339.676 383.073 338.619 383.32 337.38 383.301C337.272 383.276 337.172 383.223 337.089 383.146C337.006 383.07 336.944 382.973 336.906 382.865C336.852 382.692 336.852 382.506 336.906 382.333C336.948 382.077 337.003 381.824 337.07 381.574L337.398 380.226C337.563 379.327 337.82 378.449 338.163 377.607C338.13 378.523 338.001 379.433 337.781 380.321L337.526 381.669C337.435 382.124 337.271 382.827 337.526 382.77C338.437 382.77 339.73 382.561 340.933 382.485L342.755 382.314L342.518 382.732C341.735 380.834 341.079 379.05 340.696 377.816C340.36 377.186 340.115 376.508 339.967 375.804V375.804Z" fill="#407BFF"/>
<path d="M277.582 535.559L358.387 532.996L393.552 675.992L387.084 840.017H344.358L349.587 679.484L318.34 579.934L323.15 846.375L279.968 847.039L275.432 596.598C275.231 589.633 273.045 573.936 273.865 567.027L277.582 535.559Z" fill="#263238"/>
<path d="M329.09 581.964C327.768 582.051 326.44 581.968 325.137 581.718C322.695 581.414 319.361 580.883 315.699 580.123C312.036 579.364 308.757 578.491 306.388 577.789C305.122 577.499 303.897 577.04 302.744 576.422C302.744 576.138 308.684 577.618 315.972 579.155C323.26 580.693 329.127 581.68 329.09 581.964Z" fill="#455A64"/>
<path d="M386.647 831.02C386.647 831.286 376.972 831.514 365.038 831.514C353.104 831.514 343.411 831.286 343.411 831.02C343.411 830.755 353.086 830.527 365.038 830.527C376.99 830.527 386.647 830.736 386.647 831.02Z" fill="#455A64"/>
<path d="M322.767 839.447C322.767 839.732 313.366 839.941 301.778 839.941C290.19 839.941 280.807 839.732 280.807 839.447C280.807 839.163 290.208 838.954 301.778 838.954C313.348 838.954 322.767 839.182 322.767 839.447Z" fill="#455A64"/>
<path d="M317.192 838.764C316.937 838.764 315.807 780.552 314.659 708.751C313.511 636.95 312.837 578.7 313.074 578.7C313.311 578.7 314.477 636.893 315.607 708.732C316.736 780.571 317.465 838.764 317.192 838.764Z" fill="#455A64"/>
<path d="M380.907 831.02C380.887 830.761 380.887 830.501 380.907 830.242V827.964C380.907 825.915 381.053 822.973 381.163 819.234C381.418 811.642 381.782 800.614 382.237 787.1C383.221 759.921 384.606 722.455 386.118 681.097C386.118 680.699 386.118 680.319 386.118 679.977V680.11C376.553 640.252 367.898 604.076 361.612 577.903L354.324 546.946C353.486 543.321 352.849 540.493 352.393 538.519C352.175 537.589 352.029 536.868 351.901 536.318C351.83 536.071 351.787 535.816 351.774 535.558C351.868 535.798 351.942 536.045 351.992 536.299C352.138 536.83 352.32 537.551 352.575 538.462C353.067 540.36 353.778 543.245 354.689 546.852C356.511 554.178 359.08 564.731 362.287 577.732C368.627 603.886 377.373 639.967 387.066 679.882V680.015C387.066 680.357 387.066 680.755 387.066 681.135C385.444 722.492 383.968 759.94 382.893 787.119C382.329 800.652 381.855 811.604 381.527 819.234C381.345 823.03 381.199 825.915 381.108 827.964C381.108 828.932 380.999 829.692 380.98 830.242C380.983 830.503 380.959 830.764 380.907 831.02V831.02Z" fill="#455A64"/>
<path d="M366.969 676.637C363.9 677.688 360.739 678.419 357.531 678.82C353.596 679.522 350.243 680.015 348.731 680.091V679.712C349.223 679.863 349.478 679.958 349.478 680.034C349.478 680.11 349.168 680.034 348.658 680.034H347.565L348.658 679.693C350.079 679.256 353.432 678.535 357.367 677.795C360.523 677.081 363.74 676.693 366.969 676.637Z" fill="#455A64"/>
<path d="M366.222 682.084C363.38 682.22 360.532 682.086 357.713 681.685C354.867 681.625 352.032 681.301 349.241 680.717C354.935 680.233 360.667 680.695 366.222 682.084V682.084Z" fill="#455A64"/>
<path opacity="0.2" d="M277.236 538.576C278.193 539.857 279.398 540.912 280.773 541.674C282.148 542.436 283.662 542.888 285.216 542.999C288.47 543.4 291.762 543.337 295 542.809C315.862 540.399 337.963 538.178 358.387 532.996C331.95 534.534 304.019 534.021 277.582 535.559L277.308 537.912" fill="black"/>
<g opacity="0.2">
<path d="M304.474 577.391L319.378 637.633L318.34 579.934L304.474 577.391Z" fill="black"/>
</g>
</svg>
